<svg height="512" viewBox="0 0 58 58" width="512" xmlns="http://www.w3.org/2000/svg"><g id="Page-1" fill="none" fill-rule="evenodd"><g id="051---Data-Recovery"><path id="Path" d="m47.4 8h4.6c2.209139 0 4 1.790861 4 4v38h-54v-38c0-2.209139 1.790861-4 4-4z" fill="#90bae1"/><path id="Path" d="m52.95 8.12c-11.41.71-50.95 5.65-50.95 39.88v-36c0-2.209139 1.790861-4 4-4h46c.3205339-.00142005.6398873.03891933.95.12z" fill="#b0d3f0"/><path id="Path" d="m7 5v33c0 2.76 7.61 5 17 5 1.9671705.0007403 3.933085-.0993912 5.89-.3l11.11-27.84v-9.86z" fill="#547580"/><path id="Path" d="m52 58h-46c-3.3137085 0-6-2.6862915-6-6v-3c0-.5522847.44771525-1 1-1h56c.5522847 0 1 .4477153 1 1v3c0 3.3137085-2.6862915 6-6 6z" fill="#547580"/><path id="Path" d="m19 48h20v2c0 1.6568542-1.3431458 3-3 3h-14c-1.6568542 0-3-1.3431458-3-3z" fill="#3f5c6c"/><path id="Path" d="m15 53h-3c-.5522847 0-1-.4477153-1-1s.4477153-1 1-1h3c.5522847 0 1 .4477153 1 1s-.4477153 1-1 1z" fill="#3f5c6c"/><circle id="Oval" cx="4" cy="52" fill="#65ddb9" r="1"/><circle id="Oval" cx="8" cy="52" fill="#65ddb9" r="1"/><ellipse id="Oval" cx="24" cy="5" fill="#95a5a5" rx="17" ry="5"/><path id="Path" d="m21 29c.0015696.9832705.095313 1.9642288.28 2.93-8.1-.38-14.28-2.44-14.28-4.93v-11c0 2.69 7.25 4.89 16.32 4.99-1.5199713 2.3947549-2.3248315 5.1736043-2.32 8.01z" fill="#3f5c6c"/><path id="Path" d="m51 29c-.0027597 8.2831279-6.7168721 14.9972403-15 15-2.1058284.0050276-4.1886201-.4381196-6.11-1.3-4.4440529-1.9847676-7.652408-5.998006-8.61-10.77-.184687-.9657712-.2784304-1.9467295-.28-2.93 0-8.2842712 6.7157288-15 15-15s15 6.7157288 15 15z" fill="#46b29d"/><path id="Path" d="m47.707 28.293-3-3c-.3904999-.3903819-1.0235001-.3903819-1.414 0l-3 3c-.3789722.3923789-.3735524 1.0160848.0121814 1.4018186s1.0094397.3911536 1.4018186.0121814l1.293-1.293v.586c0 3.8659932-3.1340068 7-7 7s-7-3.1340068-7-7 3.1340068-7 7-7c1.591374-.0061497 3.1363227.5359067 4.375 1.535.2779125.2315358.6591983.2949398.9970866.1658055s.5796999-.4306739.6323526-.7885451c.0526527-.3578713-.0920624-.7162796-.3784392-.9372604-3.2788062-2.6259119-7.9380788-2.6343847-11.2264137-.0204152-3.2883348 2.6139696-4.3310473 7.1550756-2.5123925 10.9416939 1.8186548 3.7866182 6.0149216 5.8115227 10.1108115 4.8789621s7.0019116-4.5745286 7.0019947-8.7752408v-.586l1.293 1.293c.3923789.3789722 1.0160848.3735524 1.4018186-.0121814s.3911536-1.0094397.0121814-1.4018186z" fill="#fff"/></g></g></svg>