<svg id="Capa_1" enable-background="new 0 0 512 512" viewBox="0 0 512 512" xmlns="http://www.w3.org/2000/svg"><g><g><g><g><path d="m512 91.558-255.982-10.302-256.018 10.302v363.623c0 17.876 14.491 32.368 32.368 32.368h447.265c17.876 0 32.368-14.491 32.368-32.368v-363.623z" fill="#fff0f3"/></g></g><g><g><path d="m481.095 91.558v332.717c0 17.876-14.491 32.368-32.368 32.368h-447.265c-.478 0-.953-.016-1.426-.036.747 17.214 14.934 30.942 32.331 30.942h447.265c17.876 0 32.368-14.491 32.368-32.368v-363.623l-17.697-10.302z" fill="#efe9e9"/></g></g><g><g><g><path d="m512 91.558h-512v-50.125c0-9.379 7.603-16.982 16.982-16.982h478.037c9.379 0 16.982 7.603 16.982 16.982v50.125z" fill="#59efff"/></g></g><g><g><path d="m494.506 24.451h-30.906c9.662 0 17.494 7.832 17.494 17.494v49.613h30.906v-49.613c0-9.661-7.832-17.494-17.494-17.494z" fill="#00dfff"/></g></g><g><g><path d="m388.808 65.725c-9.086.224-10.45-13.742-1.503-15.298 10.804-2.165 12.528 15.329 1.503 15.298z" fill="#009aff"/></g></g><g><g><path d="m422.947 65.736c-11.011.016-9.309-17.472 1.505-15.309 8.956 1.568 7.572 15.505-1.505 15.309z" fill="#009aff"/></g></g><g><g><path d="m457.078 65.725c-11.021.022-9.287-17.474 1.515-15.298 8.944 1.565 7.571 15.523-1.515 15.298z" fill="#009aff"/></g></g></g></g><g><g><path d="m102.611 211.976h-36.618c-7.883 0-14.273-6.39-14.273-14.273v-36.618c0-7.883 6.39-14.273 14.273-14.273h36.618c7.883 0 14.273 6.39 14.273 14.273v36.618c0 7.883-6.39 14.273-14.273 14.273z" fill="#ff9aca"/></g></g><g><g><path d="m102.611 314.519h-36.618c-7.883 0-14.273-6.39-14.273-14.273v-36.618c0-7.883 6.39-14.273 14.273-14.273h36.618c7.883 0 14.273 6.39 14.273 14.273v36.618c0 7.883-6.39 14.273-14.273 14.273z" fill="#ffd700"/></g></g><g><g><path d="m102.611 417.062h-36.618c-7.883 0-14.273-6.39-14.273-14.273v-36.618c0-7.883 6.39-14.273 14.273-14.273h36.618c7.883 0 14.273 6.39 14.273 14.273v36.618c0 7.883-6.39 14.273-14.273 14.273z" fill="#00dfff"/></g></g><g><g><path d="m330.406 417.062h-36.618c-7.883 0-14.273-6.39-14.273-14.273v-36.618c0-7.883 6.39-14.273 14.273-14.273h36.618c7.883 0 14.273 6.39 14.273 14.273v36.618c0 7.883-6.391 14.273-14.273 14.273z" fill="#ffb154"/></g></g><g><g><path d="m253.089 170.479h-95.522c-4.267 0-7.726-3.459-7.726-7.726s3.459-7.726 7.726-7.726h95.522c4.267 0 7.726 3.459 7.726 7.726s-3.459 7.726-7.726 7.726z" fill="#eacbd4"/></g></g><g><g><path d="m190.608 203.762h-33.041c-4.267 0-7.726-3.459-7.726-7.726s3.459-7.726 7.726-7.726h33.041c4.267 0 7.726 3.459 7.726 7.726s-3.459 7.726-7.726 7.726z" fill="#eacbd4"/></g></g><g><g><path d="m239.696 273.022h-82.129c-4.267 0-7.726-3.459-7.726-7.726s3.459-7.726 7.726-7.726h82.129c4.267 0 7.726 3.459 7.726 7.726.001 4.266-3.458 7.726-7.726 7.726z" fill="#eacbd4"/></g></g><g><g><path d="m190.608 306.305h-33.041c-4.267 0-7.726-3.459-7.726-7.726s3.459-7.726 7.726-7.726h33.041c4.267 0 7.726 3.459 7.726 7.726s-3.459 7.726-7.726 7.726z" fill="#eacbd4"/></g></g><g><g><path d="m232.485 375.565h-74.918c-4.267 0-7.726-3.459-7.726-7.726s3.459-7.726 7.726-7.726h74.918c4.267 0 7.726 3.459 7.726 7.726s-3.459 7.726-7.726 7.726z" fill="#eacbd4"/></g></g><g><g><path d="m190.608 408.848h-33.041c-4.267 0-7.726-3.459-7.726-7.726s3.459-7.726 7.726-7.726h33.041c4.267 0 7.726 3.459 7.726 7.726s-3.459 7.726-7.726 7.726z" fill="#eacbd4"/></g></g><g><g><path d="m454.098 170.479h-65.56c-4.267 0-7.726-3.459-7.726-7.726s3.459-7.726 7.726-7.726h65.56c4.267 0 7.726 3.459 7.726 7.726.001 4.267-3.459 7.726-7.726 7.726z" fill="#eacbd4"/></g></g><g><g><path d="m456.159 273.022h-64.084c-4.267 0-7.726-3.459-7.726-7.726s3.459-7.726 7.726-7.726h64.084c4.267 0 7.726 3.459 7.726 7.726 0 4.266-3.459 7.726-7.726 7.726z" fill="#eacbd4"/></g></g><g><g><path d="m460.279 375.565h-74.918c-4.267 0-7.726-3.459-7.726-7.726s3.459-7.726 7.726-7.726h74.918c4.267 0 7.726 3.459 7.726 7.726.001 4.267-3.458 7.726-7.726 7.726z" fill="#eacbd4"/></g></g><g><g><path d="m418.402 408.848h-33.041c-4.267 0-7.726-3.459-7.726-7.726s3.459-7.726 7.726-7.726h33.041c4.267 0 7.726 3.459 7.726 7.726s-3.459 7.726-7.726 7.726z" fill="#eacbd4"/></g></g><g><g><path d="m441.493 344.235-1.012 1.012c-9.263 9.263-24.28 9.263-33.543 0l-54.853-54.853 34.555-34.555 54.853 54.853c9.262 9.263 9.262 24.281 0 33.543z" fill="#af6f80"/></g></g><g><g><circle cx="313.6" cy="217.355" fill="#d9a2b1" r="95.483"/></g></g><g><g><path d="m357.171 173.784c24.063 24.063 24.063 63.078 0 87.142-3.825 3.825-8.028 7.042-12.489 9.651l-65.167-1.881c-3.417-2.256-6.478-4.763-9.486-7.77-24.063-24.064-24.063-63.078 0-87.142 2.954-2.954 6.137-5.541 9.486-7.77l65.164-1.876c4.46 2.609 8.666 5.821 12.492 9.646z" fill="#fff0f3"/></g></g><g><g><path d="m329.975 249.355h-35.756c-8.121 0-14.704 6.583-14.704 14.704v4.637c19.597 13.04 45.008 13.664 65.164 1.876v-6.513c0-8.121-6.583-14.704-14.704-14.704z" fill="#00dc9b"/></g></g><g><g><path d="m279.515 166.014v31.258c0 8.121 6.583 14.704 14.704 14.704h35.756c8.121 0 14.704-6.583 14.704-14.704v-33.134c-20.156-11.789-45.567-11.164-65.164 1.876z" fill="#ffd700"/></g></g></g><g/><g/><g/><g/><g/><g/><g/><g/><g/><g/><g/><g/><g/><g/><g/></svg>