<svg id="Capa_1" enable-background="new 0 0 497 497" height="512" viewBox="0 0 497 497" width="512" xmlns="http://www.w3.org/2000/svg"><g><path d="m431.592 128.136 15.148-17.627c10.289-11.972 28.335-13.337 40.307-3.048s13.337 28.334 3.048 40.307l-15.148 17.627c-10.289 11.972-28.335 13.337-40.307 3.048s-13.337-28.335-3.048-40.307z" fill="#ffe5c2"/><path d="m497 129.147c0 6.6-2.27 13.23-6.91 18.62l-15.14 17.63c-9.13 10.62-24.36 12.89-36.04 6.09 2.7-1.56 5.18-3.59 7.32-6.09l15.15-17.63c4.63-5.39 6.9-12.02 6.9-18.62 0-8.04-3.37-16.04-9.95-21.69-1.35-1.16-2.78-2.17-4.27-3.04 10.22-5.94 23.51-5.1 32.99 3.04 6.58 5.65 9.95 13.65 9.95 21.69z" fill="#fed2a4"/><path d="m433.184 213.149-47.855-41.126c-11.972-10.289-13.337-28.334-3.048-40.307 10.289-11.972 28.334-13.337 40.307-3.048l47.855 41.126c11.972 10.289 13.337 28.334 3.048 40.307-10.289 11.972-28.335 13.337-40.307 3.048z" fill="#ffe5c2"/><path d="m473.49 210.097c-5.65 6.58-13.65 9.96-21.69 9.96-4.94 0-9.91-1.28-14.36-3.87 2.7-1.55 5.18-3.59 7.33-6.09 10.29-11.97 8.93-30.01-3.05-40.3l-47.85-41.13c-1.35-1.16-2.78-2.18-4.26-3.05 4.4-2.55 9.38-3.85 14.37-3.85 6.59 0 13.22 2.26 18.61 6.9l47.85 41.13c11.97 10.29 13.34 28.33 3.05 40.3z" fill="#fed2a4"/><path d="m405.84 283.635-86.083-73.979c-16.464-14.149-18.341-38.966-4.192-55.43s38.966-18.341 55.43-4.192l86.083 73.979c16.464 14.149 18.341 38.966 4.192 55.43s-38.966 18.341-55.43 4.192z" fill="#ffe5c2"/><path d="m461.27 279.447c-7.77 9.04-18.77 13.69-29.83 13.69-4.86 0-9.73-.89-14.34-2.72 5.79-2.26 11.12-5.93 15.45-10.97 14.15-16.47 12.27-41.29-4.19-55.43l-86.08-73.98c-3.45-2.96-7.26-5.23-11.27-6.78 4.6-1.81 9.48-2.72 14.38-2.72 9.07 0 18.19 3.12 25.61 9.5l86.08 73.98c16.46 14.14 18.34 38.96 4.19 55.43z" fill="#fed2a4"/><path d="m450.38 349.977c0 15.86-3.13 31.86-9.59 47.11-9.93 23.38-27 43.05-48.78 56.18l-36.52 22.01c-11.18 6.74-23.75 10.12-36.33 10.12-.43 0-.88-.02-1.31-.03-5.41-.09-10.81-.81-16.09-2.17-6.58-1.67-12.96-4.31-18.93-7.92l-36.54-22.01c-10.87-6.56-20.58-14.76-28.81-24.25-8.24-9.48-14.99-20.23-19.95-31.93-20.52-48.36-7.41-104.43 32.43-138.67l6.14-5.28 17.76-15.27 5.51-4.73 10.47-8.99h98.63l24.49 21.04h.01l15.39 13.23c27.27 23.44 42.02 57.12 42.02 91.56z" fill="#7ca1b1"/><path d="m450.38 349.977c0 15.86-3.13 31.86-9.59 47.11-9.93 23.38-27 43.05-48.78 56.18l-36.52 22.01c-11.18 6.74-23.75 10.12-36.33 10.12-.43 0-.88-.02-1.31-.03-5.41-.09-10.81-.81-16.09-2.17 22.91-9.54 25.62-47.17 25.62-47.17 0-18.21-2.86-36.19-8.38-53.31s-13.69-33.38-24.32-48.16l-58.58-81.42 17.76-15.27 5.51-4.73 10.47-8.99h98.63l24.49 21.04h.01l15.39 13.23c27.27 23.44 42.02 57.12 42.02 91.56z" fill="#678d98"/><path d="m317.851 485.368c-12.144-.21-24.25-3.586-35.02-10.09l-36.538-22.012c-10.875-6.556-20.585-14.762-28.817-24.25-8.232-9.475-14.984-20.232-19.944-31.932-20.52-48.356-7.407-104.433 32.429-138.667l23.896-20.546 24.891 18.467 12.577 33.631c-23.124 19.224-36.512 47.754-36.512 77.827v15.639c0 12.432 2.29 24.76 6.766 36.368 9.565 24.865 29.025 64.335 56.272 65.565z" fill="#ffe5c2"/><path d="m317.85 485.367c-12.14-.21-24.25-3.58-35.02-10.09l-32.26-19.43c-7.63-11.91-13.59-25.33-17.71-36.04-4.48-11.61-6.77-23.94-6.77-36.37v-15.64c0-27.588 11.27-53.879 30.985-72.882 3.066-2.955 3.559-7.683 1.073-11.14l-22.038-30.649 17.75-15.26 24.887 18.471 12.573 33.629c-23.12 19.23-36.51 47.76-36.51 77.83v15.64c0 12.43 2.29 24.76 6.77 36.37 9.56 24.861 29.02 64.331 56.27 65.561z" fill="#fed2a4"/><path d="m140.775 48.589 35.985-32.881c11.017-10.066 28.489-.216 25.58 14.42l-9.503 47.81c-1.299 6.533 1.735 13.163 7.528 16.451l42.392 24.063c12.978 7.367 9.009 27.028-5.81 28.784l-48.407 5.736c-6.615.784-11.983 5.718-13.32 12.243l-9.786 47.753c-2.996 14.619-22.921 16.921-29.171 3.369l-20.414-44.265c-2.789-6.049-9.141-9.629-15.76-8.885l-48.44 5.45c-14.83 1.668-23.176-16.571-12.219-26.702l35.79-33.093c4.891-4.522 6.333-11.669 3.58-17.734l-20.151-44.383c-6.169-13.588 8.598-27.162 21.619-19.872l42.534 23.812c5.812 3.254 13.055 2.418 17.973-2.076z" fill="#fe646f"/><path d="m236.945 147.234-48.407 5.745c-6.612.776-11.975 5.718-13.319 12.242l-9.781 47.744c-3.005 14.619-22.92 16.92-29.178 3.37l-5.257-11.414 7.264-35.433c1.331-6.523 6.707-11.466 13.319-12.242l48.407-5.745c14.825-1.751 18.781-21.416 5.807-28.78l-42.385-24.058c-5.803-3.294-8.833-9.927-7.528-16.459l9.506-47.802c.566-2.853.358-5.541-.429-7.918l11.8-10.776c11.012-10.07 28.481-.22 25.581 14.425l-9.506 47.802c-1.305 6.532 1.738 13.163 7.528 16.459l42.385 24.058c12.987 7.365 9.018 27.032-5.807 28.782z" fill="#fd4755"/><path d="m87.194 440.403-79.956-57.089c-7.765-5.544-9.565-16.333-4.021-24.098l21.125-29.586c5.544-7.765 16.333-9.565 24.098-4.021l79.955 57.089c7.765 5.544 9.565 16.333 4.021 24.098l-21.125 29.586c-5.544 7.765-16.333 9.565-24.097 4.021z" fill="#fea613"/><path d="m212.35 358.3c0 11.43-3.52 22.77-10.36 32.36-10.26 14.37-26.72 23.02-44.37 23.32l-98.22 1.67c-1.09.02-2.16-.05-3.2-.21-6.57-.92-12.29-5-15.3-10.91-.47-.94-.89-1.94-1.22-2.97l-30.32-93.43c-1.82-5.62-2.71-11.41-2.71-17.17 0-11.47 3.54-22.81 10.36-32.37 11.1-15.54 29.38-24.31 48.45-23.24 31.64 1.78 61.36 12.59 86.15 30.3 24.79 17.7 44.67 42.3 56.63 71.65 2.76 6.77 4.11 13.9 4.11 21z" fill="#ffd15b"/><path d="m212.35 358.297c0 11.44-3.52 22.78-10.36 32.37-10.26 14.36-26.72 23.01-44.37 23.31l-24.25.41c17.65-.3 33.94-9.36 44.2-23.72 6.84-9.59 10.36-20.93 10.36-32.37 0-7.1-1.35-14.23-4.11-21-11.96-29.35-31.84-53.95-56.63-71.65-22-15.72-47.89-26-75.56-29.35 4.5-.88 9.14-1.21 13.83-.95 31.64 1.78 61.36 12.59 86.15 30.3 24.79 17.7 44.67 42.3 56.63 71.65 2.76 6.77 4.11 13.9 4.11 21z" fill="#ffc344"/><path d="m160.55 357.47-104.35 57.97c-6.57-.92-12.29-5-15.3-10.91l17.63-98.83c.73-4.08 4.62-6.79 8.7-6.07 4.08.73 6.79 4.62 6.07 8.7l-12.86 72.1 61.822-85.995c2.41-3.37 7.09-4.15 10.46-1.74 3.37 2.4 4.16 7.09 1.75 10.46l-61.822 85.995 80.61-44.79c3.62-2.01 8.19-.71 10.2 2.91s.71 8.19-2.91 10.2z" fill="#ffc344"/><circle cx="139.259" cy="90.409" fill="#fd4755" r="7.499"/><circle cx="146.759" cy="130.585" fill="#fd4755" r="7.499"/><path d="m450.381 349.973c0 15.861-3.128 31.866-9.593 47.112-9.933 23.386-26.998 43.055-48.774 56.181l-36.525 22.012c-11.176 6.74-23.753 10.116-36.329 10.116 0-.013 0-.013 0-.013 33.384 0 36.944-49.363 36.944-49.363 0-36.415-11.441-71.91-32.707-101.47l-72.595-100.909c-6.532-9.079-9.225-20.365-7.498-31.415 5.149-32.944 44.473-47.429 69.762-25.696l55.405 47.615 24.485 21.044h.013l15.39 13.231c27.273 23.438 42.022 57.123 42.022 91.555z" fill="#ffe5c2"/><path d="m450.38 349.977c0 15.86-3.13 31.86-9.59 47.11-9.93 23.38-27 43.05-48.78 56.18l-36.52 22.01c-11.18 6.74-23.75 10.12-36.33 10.12 0-.02 0-.02 0-.02 16.39 0 25.59-11.91 30.71-24.02l13.42-8.09c21.78-13.13 38.85-32.8 48.78-56.18 6.46-15.25 9.59-31.25 9.59-47.11 0-34.44-14.75-68.12-42.02-91.56l-15.39-13.23h-.01l-24.49-21.04-55.4-47.62c-4.12-3.54-8.62-6.12-13.27-7.81 4.62-1.65 9.5-2.51 14.44-2.51 9.56 0 19.3 3.23 27.55 10.32l55.4 47.62 24.49 21.04h.01l15.39 13.23c27.27 23.44 42.02 57.12 42.02 91.56z" fill="#fed2a4"/></g></svg>