<svg id="Icons" viewBox="0 0 60 60" xmlns="http://www.w3.org/2000/svg"><path d="m1 18v-14a3 3 0 0 1 3-3h14.19a5 5 0 0 1 3.2 1.159l3.218 2.682a5 5 0 0 0 3.202 1.159h28.19a3 3 0 0 1 3 3v9z" fill="#e58b0a"/><path d="m6 16v-3a3 3 0 0 1 3-3h42a3 3 0 0 1 3 3v3z" fill="#fff"/><rect fill="#ffb90b" height="38" rx="3" width="58" x="1" y="15"/><path d="m27.01 34.4a13.281 13.281 0 0 0 -11.36-6.4h-4.65a2.006 2.006 0 0 0 -2 2v2a2.006 2.006 0 0 0 2 2h4.65a7.281 7.281 0 0 1 6.51 4.03l1.49 2.97 3.36 6.6a13.223 13.223 0 0 0 11.34 6.4h3.65v3.9a1.1 1.1 0 0 0 1.88.772l6.82-6.95a1.014 1.014 0 0 0 0-1.44l-6.82-6.952a1.1 1.1 0 0 0 -1.88.71v3.96h-3.65a7.281 7.281 0 0 1 -6.51-4.03l-1.48-2.97z" fill="#344f9b"/><path d="m50.7 30.28-6.82-6.951a1.1 1.1 0 0 0 -1.88.71v3.961h-3.65a13.254 13.254 0 0 0 -11.87 7.34l-4.32 8.63a7.281 7.281 0 0 1 -6.51 4.03h-4.65a2.006 2.006 0 0 0 -2 2v2a2.006 2.006 0 0 0 2 2h4.65a13.281 13.281 0 0 0 11.88-7.34l4.31-8.63a7.282 7.282 0 0 1 6.51-4.03h3.65v3.9a1.1 1.1 0 0 0 1.88.766l6.82-6.95a1.014 1.014 0 0 0 0-1.436z" fill="#3763c4"/></svg>