<svg id="Layer_1" enable-background="new 0 0 74 74" height="512" viewBox="0 0 74 74" width="512" xmlns="http://www.w3.org/2000/svg"><g><g><path d="m37 25.53 8.1-9.09 23.9 7.07-8.1 9.08z" fill="#bc7b57"/><path d="m13.1 32.59-8.1-9.08 23.9-7.07 8.1 9.09z" fill="#cc8e65"/><path d="m37 39.67-23.9-7.08 23.9-7.06z" fill="#965538"/><path d="m37 39.67 23.9-7.08-23.9-7.06z" fill="#aa6948"/></g><g><g><path d="m53 23.82c0-10.39-8.43-18.82-18.82-18.82-10.4 0-18.82 8.42-18.82 18.82s8.42 18.82 18.82 18.82c10.39 0 18.82-8.43 18.82-18.82zm-22.03 0c0-1.78 1.44-3.22 3.22-3.22s3.22 1.44 3.22 3.22-1.44 3.22-3.22 3.22-3.22-1.44-3.22-3.22z" fill="#ebebeb"/><path d="m50.72 14.83-10.67 6.61-3.48-3.48 6.61-10.67c1.55.83 3.01 1.92 4.32 3.23s2.38 2.76 3.22 4.31z" opacity=".05"/><path d="m17.65 32.81 10.67-6.61 3.48 3.48-6.61 10.67c-1.55-.83-3.01-1.92-4.32-3.23-1.3-1.3-2.38-2.76-3.22-4.31z" opacity=".05"/><path d="m41.44 23.82c0-4.01-3.25-7.26-7.26-7.26s-7.26 3.25-7.26 7.26 3.25 7.26 7.26 7.26 7.26-3.25 7.26-7.26zm-10.47 0c0-1.78 1.44-3.22 3.22-3.22s3.22 1.44 3.22 3.22-1.44 3.22-3.22 3.22-3.22-1.44-3.22-3.22z" fill="#d7d8d6"/><path d="m39.22 23.82c0-2.78-2.26-5.03-5.03-5.03-2.78 0-5.03 2.26-5.03 5.03 0 2.78 2.25 5.03 5.03 5.03 2.77 0 5.03-2.25 5.03-5.03zm-8.25 0c0-1.78 1.44-3.22 3.22-3.22s3.22 1.44 3.22 3.22-1.44 3.22-3.22 3.22-3.22-1.44-3.22-3.22z" fill="#ebebeb"/></g><path d="m43.96 7.74c-2.85-1.74-6.2-2.74-9.78-2.74-10.4 0-18.82 8.42-18.82 18.81 0 3.58 1 6.93 2.73 9.78 2.85 1.73 6.2 2.73 9.78 2.73 10.38 0 18.82-8.42 18.82-18.82 0-3.58-1-6.91-2.73-9.76zm-9.78 19.29c-1.78 0-3.22-1.44-3.22-3.22 0-1.77 1.44-3.22 3.22-3.22s3.22 1.45 3.22 3.22c0 1.78-1.44 3.22-3.22 3.22z" fill="#fff" opacity=".2"/></g><g><g fill="#54b8ea"><path d="m63.39 6.31v10.9h-7.13v-10.9c0-.72.58-1.3 1.3-1.3h4.52c.73-.01 1.31.58 1.31 1.3z"/><path d="m65.35 19.4-4.35 6.42c-.56.82-1.77.82-2.33 0l-4.36-6.42c-.63-.93.03-2.2 1.16-2.2h8.72c1.13 0 1.8 1.27 1.16 2.2z"/></g><g opacity=".2"><path d="m61.77 5h-4.2c-.72 0-1.31.58-1.31 1.31v10.9h-.79c-1.13 0-1.8 1.26-1.16 2.19l2.69 3.96c2.64 0 4.78-2.14 4.78-4.78v-13.58z" fill="#fff"/></g></g><path d="m37 39.67v29.33l-23.9-7.07v-29.34z" fill="#cc8e65"/><path d="m60.9 32.59v29.34l-23.9 7.07v-29.33z" fill="#bc7b57"/><path d="m53.98 34.64c0 14.71-11.93 26.64-26.64 26.64h-14.24v-28.69l23.9 7.08z" fill="#fff" opacity=".1"/><path d="m46 37c-4.14 9.32-13.48 15.82-24.34 15.82h-8.56v-20.23l23.9 7.08z" fill="#fff" opacity=".1"/><path d="m37 39.67-8.1 9.08-23.9-7.07 8.1-9.09z" fill="#bc7b57"/><path d="m31.09 37.92-4.38 4.91c-.77.87-1.98 1.21-3.09.88l-16.17-4.78 5.65-6.34z" fill="#fff" opacity=".1"/><path d="m60.9 32.59 8.1 9.09-23.9 7.07-8.1-9.08z" fill="#cc8e65"/><path d="m58.53 40.53-16.43 4.86-5.1-5.72 20.96-6.21 1.96 2.2c1.46 1.64.72 4.25-1.39 4.87z" fill="#fff" opacity=".1"/></g></svg>