<svg id="Layer_1" enable-background="new 0 0 58 58" height="512" viewBox="0 0 58 58" width="512" xmlns="http://www.w3.org/2000/svg"><path d="m55 5v4c0 .55-.45 1-1 1h-8c-.55 0-1-.45-1-1v-4c0-2.76 2.24-5 5-5 .34 0 .67.03.99.1h.02c2.27.47 3.99 2.48 3.99 4.9z" fill="#c8c6cc"/><path d="m55 49v4c0 2.42-1.72 4.43-3.99 4.9 0 0-.01 0-.02 0-.32.07-.65.1-.99.1-2.76 0-5-2.24-5-5v-4c0-.55.45-1 1-1h8c.55 0 1 .45 1 1z" fill="#c8c6cc"/><path d="m50.99 57.9c-.32.07-.65.1-.99.1h-42c-2.76 0-5-2.24-5-5v-48c0-2.76 2.24-5 5-5h42c.34 0 .67.03.99.1-2.27.47-3.99 2.48-3.99 4.9v48c0 2.42 1.72 4.43 3.99 4.9z" fill="#eee"/><path d="m39 40.89v12.11c0 .36-.19.69-.51.87-.15.09-.32.13-.49.13-.18 0-.36-.05-.51-.14l-3.49-2.09-1-.6-1 .6-3.49 2.09c-.3.18-.69.19-1 .01-.32-.18-.51-.51-.51-.87v-12.11c0-.41.25-.77.62-.93.38-.15.81-.06 1.1.23 1.11 1.15 2.67 1.81 4.28 1.81s3.17-.66 4.28-1.81c.29-.29.72-.38 1.1-.23.37.16.62.52.62.93z" fill="#00a6ff"/><circle cx="33" cy="36" fill="#ff3c62" r="8"/><circle cx="33" cy="36" fill="#ffa7b8" r="4"/><path d="m34 47v4.77l-1-.6-1 .6v-4.77c0-.55.45-1 1-1s1 .45 1 1z" fill="#006ef5"/><g fill="#ffb74f"><path d="m31 8h-12c-.552 0-1-.448-1-1s.448-1 1-1h12c.553 0 1 .448 1 1s-.447 1-1 1z"/><path d="m40 14h-18c-.552 0-1-.448-1-1s.448-1 1-1h18c.553 0 1 .448 1 1s-.447 1-1 1z"/><path d="m18 14h-4c-.552 0-1-.448-1-1s.448-1 1-1h4c.552 0 1 .448 1 1s-.448 1-1 1z"/><path d="m40 18h-4c-.553 0-1-.448-1-1s.447-1 1-1h4c.553 0 1 .448 1 1s-.447 1-1 1z"/><path d="m32 18h-22c-.552 0-1-.448-1-1s.448-1 1-1h22c.553 0 1 .448 1 1s-.447 1-1 1z"/><path d="m40 22h-11c-.552 0-1-.448-1-1s.448-1 1-1h11c.553 0 1 .448 1 1s-.447 1-1 1z"/><path d="m25 22h-15c-.552 0-1-.448-1-1s.448-1 1-1h15c.552 0 1 .448 1 1s-.448 1-1 1z"/><path d="m40 26h-21c-.552 0-1-.448-1-1s.448-1 1-1h21c.553 0 1 .448 1 1s-.447 1-1 1z"/><path d="m15 26h-5c-.552 0-1-.448-1-1s.448-1 1-1h5c.552 0 1 .448 1 1s-.448 1-1 1z"/><path d="m21 33h-10c-1.103 0-2 .897-2 2v2c0 1.103.897 2 2 2h10c1.103 0 2-.897 2-2v-2c0-1.103-.897-2-2-2z"/></g></svg>