<svg id="Icons" viewBox="0 0 60 60" xmlns="http://www.w3.org/2000/svg"><path d="m44 55v1h-28v-1s6-1 6-7v-1h16v1c0 6 6 7 6 7z" fill="#97aab2"/><rect fill="#b3c1c9" height="4" rx="2" width="32" x="14" y="55"/><path d="m59 41v4c0 1.66-1.34 3-3 3h-52c-1.66 0-3-1.34-3-3v-4l1-2h56z" fill="#b3c1c9"/><path d="m59 4v37h-58v-37c0-1.66 1.34-3 3-3h52c1.66 0 3 1.34 3 3z" fill="#18316d"/><g fill="#fff"><path d="m24 17c-.256 0-.512-.098-.707-.293l-5-5c-.391-.391-.391-1.023 0-1.414l5-5c.391-.391 1.023-.391 1.414 0s.391 1.023 0 1.414l-4.293 4.293 4.293 4.293c.391.391.391 1.023 0 1.414-.195.195-.451.293-.707.293z"/><path d="m36 17c-.256 0-.512-.098-.707-.293-.391-.391-.391-1.023 0-1.414l4.293-4.293-4.293-4.293c-.391-.391-.391-1.023 0-1.414s1.023-.391 1.414 0l5 5c.391.391.391 1.023 0 1.414l-5 5c-.195.195-.451.293-.707.293z"/><path d="m28 18c-.104 0-.211-.017-.316-.052-.523-.174-.807-.74-.632-1.265l4-12c.175-.523.736-.809 1.265-.632.523.174.807.74.632 1.265l-4 12c-.14.419-.529.684-.948.684z"/><path d="m8 22h-1c-.553 0-1-.447-1-1s.447-1 1-1h1c.553 0 1 .447 1 1s-.447 1-1 1z"/></g><path d="m28 22h-15c-.553 0-1-.447-1-1s.447-1 1-1h15c.553 0 1 .447 1 1s-.447 1-1 1z" fill="#4ed8d5"/><path d="m39 22h-7c-.553 0-1-.447-1-1s.447-1 1-1h7c.553 0 1 .447 1 1s-.447 1-1 1z" fill="#ff4d78"/><path d="m8 27h-1c-.553 0-1-.447-1-1s.447-1 1-1h1c.553 0 1 .447 1 1s-.447 1-1 1z" fill="#fff"/><path d="m31 27h-15c-.553 0-1-.447-1-1s.447-1 1-1h15c.553 0 1 .447 1 1s-.447 1-1 1z" fill="#f9dc4e"/><path d="m44 27h-9c-.553 0-1-.447-1-1s.447-1 1-1h9c.553 0 1 .447 1 1s-.447 1-1 1z" fill="#4ed8d5"/><path d="m8 32h-1c-.553 0-1-.447-1-1s.447-1 1-1h1c.553 0 1 .447 1 1s-.447 1-1 1z" fill="#fff"/><path d="m28 32h-15c-.553 0-1-.447-1-1s.447-1 1-1h15c.553 0 1 .447 1 1s-.447 1-1 1z" fill="#4ed8d5"/><path d="m39 32h-7c-.553 0-1-.447-1-1s.447-1 1-1h7c.553 0 1 .447 1 1s-.447 1-1 1z" fill="#ff4d78"/><path d="m8 37h-1c-.553 0-1-.447-1-1s.447-1 1-1h1c.553 0 1 .447 1 1s-.447 1-1 1z" fill="#fff"/><path d="m53 27h-5c-.553 0-1-.447-1-1s.447-1 1-1h5c.553 0 1 .447 1 1s-.447 1-1 1z" fill="#ff4d78"/><path d="m31 37h-15c-.553 0-1-.447-1-1s.447-1 1-1h15c.553 0 1 .447 1 1s-.447 1-1 1z" fill="#f9dc4e"/><path d="m44 37h-9c-.553 0-1-.447-1-1s.447-1 1-1h9c.553 0 1 .447 1 1s-.447 1-1 1z" fill="#4ed8d5"/><path d="m53 37h-5c-.553 0-1-.447-1-1s.447-1 1-1h5c.553 0 1 .447 1 1s-.447 1-1 1z" fill="#ff4d78"/></svg>