<svg height="512" viewBox="0 0 60 60" width="512" xmlns="http://www.w3.org/2000/svg"><g id="Page-1" fill="none" fill-rule="evenodd"><g id="013---Disk-Restore"><path id="Path" d="m28.07 45h-15.07l3-4h12.2c-.2081578 1.3228671-.2518229 2.6664086-.13 4z" fill="#7f8e94"/><path id="Path" d="m28.2 41h-3c-.2081578 1.3228671-.2518229 2.6664086-.13 4h3c-.1218229-1.3335914-.0781578-2.6771329.13-4z" fill="#545c60"/><path id="Path" d="m29.01 49h-20.01c-1.10116878-.0081672-1.99183278-.8988312-2-2 .0032948-1.1032019.89679813-1.9967052 2-2h19.07c.1335594 1.3692851.4496966 2.7145497.94 4z" fill="#9e9e9e"/><path id="Path" d="m28.07 45h-3c.1335594 1.3692851.4496966 2.7145497.94 4h3c-.4903034-1.2854503-.8064406-2.6307149-.94-4z" fill="#707070"/><path id="Path" d="m57.66 49.81-8.02-4.2c.8152301-2.3470031.2171799-4.9534856-1.5396672-6.7103328-1.7568472-1.7568471-4.3633297-2.3548973-6.7103328-1.5396672l-4.2-8.02c3.0817663-1.3680073 6.5245285-1.6978948 9.81-.94 4.5087304 1.0443287 8.3149177 4.0487893 10.3776959 8.1917614 2.0627783 4.1429721 2.1663179 8.9909742.2823041 13.2182386z" fill="#9e9e9e"/><path id="Path" d="m54.46 32.54c-2.0468477-2.0554215-4.6328847-3.490568-7.46-4.14-1.6528718-.3794611-3.3565585-.4868703-5.044-.318.6876325.0605463 1.3704742.166781 2.044.318 4.2685085.9894965 7.918472 3.740071 10.0460238 7.570579s2.5337396 8.3827498 1.1179762 12.529421l2.5 1.307c2.6060199-5.8643689 1.3324377-12.7279589-3.204-17.267z" fill="#707070"/><path id="Path" d="m57.66 49.81c-1.560717 3.4940586-4.3559414 6.289283-7.85 7.85l-4.2-8.02c1.9020278-.6353361 3.3946639-2.1279722 4.03-4.03z" fill="#f5f5f5"/><path id="Path" d="m49.64 45.61c-.6353361 1.9020278-2.1279722 3.3946639-4.03 4.03-2.3470031.8152301-4.9534856.2171799-6.7103328-1.5396672-1.7568471-1.7568472-2.3548973-4.3633297-1.5396672-6.7103328.6353361-1.9020278 2.1279722-3.3946639 4.03-4.03 2.3470031-.8152301 4.9534856-.2171799 6.7103328 1.5396672 1.7568471 1.7568472 2.3548973 4.3633297 1.5396672 6.7103328z" fill="#7f8e94"/><path id="Path" d="m49.81 57.66c-4.5533974 2.0230617-9.8013592 1.7361612-14.107082-.7712193-4.3057229-2.5073805-7.1452373-6.9301142-7.632918-11.8887807-.1218229-1.3335914-.0781578-2.6771329.13-4h.01c.2031808-1.3151353.5832924-2.5967506 1.13-3.81l8.02 4.2c-.8152301 2.3470031-.2171799 4.9534856 1.5396672 6.7103328 1.7568472 1.7568471 4.3633297 2.3548973 6.7103328 1.5396672z" fill="#9e9e9e"/><circle id="Oval" cx="43.5" cy="43.5" fill="#607d8b" r="2.5"/><path id="Path" d="m41.39 37.36c-1.9020278.6353361-3.3946639 2.1279722-4.03 4.03l-8.02-4.2c.3366283-.7629772.7381007-1.4956644 1.2-2.19 1.628703-2.4847442 3.9369057-4.4493198 6.65-5.66z" fill="#f5f5f5"/><path id="Path" d="m52.69 26.98c-.1483292-4.0522808-2.2745825-7.7741583-5.69-9.96-.5161028-.3177638-1.0541231-.59847-1.61-.84-2.66-1.16-8.44-2.19-10.81 2.35-.0638916.1238014-.0732341.2686456-.0257763.3996291.0474577.1309835.147412.2362275.2757763.2903709l3 1.3c.1827637.0824729.2985822.2661507.2942243.4666136s-.1280491.3789339-.3142243.4533864l-11.57 4.56c-.1233155.0491896-.2611314.0473155-.3830637-.0052092s-.2179687-.151387-.2669363-.2747908l-4.55-11.57c-.0715474-.1868796-.0247822-.3984185.1188751-.5377226.1436573-.139304.3565347-.1795397.5411249-.1022774l3.04 1.32c.245874.0996579.5267776-.01007.64-.25 3.4675945-7.31650569 12.1158508-10.56070831 19.54-7.33.7218573.31387243 1.4174147.68505931 2.08 1.11 6.2168517 3.9634041 8.6294932 11.8585506 5.69 18.62z" fill="#ffdc00"/><path id="Path" d="m47 8.36c-.6625853-.42494069-1.3581427-.79612757-2.08-1.11-2.3455268-1.02070358-4.9140022-1.4215221-7.459-1.164 1.5373868.15617251 3.0414405.54879834 4.459 1.164.7218573.31387243 1.4174147.68505931 2.08 1.11 4.3149116 2.7542703 6.9249068 7.5209717 6.921 12.64 1.0695924 1.8187755 1.6769871 3.8720375 1.769 5.98 2.9394932-6.7614494.5268517-14.6565959-5.69-18.62z" fill="#fec108"/><path id="Path" d="m30.54 35c-.4618993.6943356-.8633717 1.4270228-1.2 2.19-.5467076 1.2132494-.9268192 2.4948647-1.13 3.81h-23.21c-2.209139 0-4-1.790861-4-4v-2z" fill="#9e9e9e"/><path id="Path" d="m27.54 35c-.4618993.6943356-.8633717 1.4270228-1.2 2.19-.5467076 1.2132494-.9268192 2.4948647-1.13 3.81h3c.2031808-1.3151353.5832924-2.5967506 1.13-3.81.3366283-.7629772.7381007-1.4956644 1.2-2.19z" fill="#707070"/><path id="Path" d="m21.04 14.15 4.55 11.57c.0489676.1234038.145004.2222661.2669363.2747908s.2597482.0543988.3830637.0052092l11.57-4.56c.1861752-.0744525.3098664-.2529235.3142243-.4533864s-.1114606-.3841407-.2942243-.4666136l-3-1.3c-.1283643-.0541434-.2283186-.1593874-.2757763-.2903709-.0474578-.1309835-.0381153-.2758277.0257763-.3996291 2.37-4.54 8.15-3.51 10.81-2.35.5558769.24153 1.0938972.5222362 1.61.84v11.38c-6.3277377-1.4681767-12.8994783 1.1669077-16.46 6.6h-29.54v-30c0-2.209139 1.790861-4 4-4h38c2.209139 0 4 1.790861 4 4v3.36c-.6625853-.42494069-1.3581427-.79612757-2.08-1.11-7.4241492-3.23070831-16.0724055.01349431-19.54 7.33-.1132224.23993-.394126.3496579-.64.25l-3.04-1.32c-.1845902-.0772623-.3974676-.0370266-.5411249.1022774-.1436573.1393041-.1904225.350843-.1188751.5377226z" fill="#00bcd4"/><path id="Path" d="m43 1h-3c2.209139 0 4 1.790861 4 4v1.9c.307.111.616.215.92.347.7219539.3148367 1.417514.68702822 2.08 1.113v-3.36c0-2.209139-1.790861-4-4-4z" fill="#00838f"/><path id="Path" d="m39.207 15.3c1.0950983.1514585 2.1653694.4470187 3.183.879.5558769.24153 1.0938972.5222362 1.61.84v11c1.0098544.0281496 2.0145803.1544102 3 .377v-11.376c-.5161028-.3177638-1.0541231-.59847-1.61-.84-1.9454738-.8400789-4.0803968-1.1439334-6.183-.88z" fill="#00838f"/><g fill="#000" fill-rule="nonzero"><path id="Shape" d="m5 42h9l-1.5 2h-3.5c-1.65685425 0-3 1.3431458-3 3 .00820583 1.6534434 1.34655664 2.9917942 3 3h19.334c3.0237329 7.0629083 10.5221226 11.1041919 18.0841568 9.7465202 7.5620343-1.3576718 13.1863029-7.75497 13.5642665-15.4286117.3779636-7.6736418-4.5904118-14.5926784-11.9824233-16.6869085v-8.631c2.2435166 2.064205 3.5715469 4.9376451 3.69 7.984-.002586.4749341.3292439.8861692.794.984.0677171.0143529.1367796.0213933.206.021.3977982.0001929.7578808-.2354119.917-.6 3.0534831-7.0249888.7031712-15.2286544-5.607-19.571v-2.818c-.0033061-2.76005315-2.2399468-4.99669388-5-5h-38c-2.76005315.00330612-4.99669388 2.23994685-5 5v32c.00330612 2.7600532 2.23994685 4.9966939 5 5zm-3-5v-1h26.807c-.6479488 1.2653495-1.1273602 2.6101219-1.426 4h-22.381c-.79564947 0-1.55871121-.3160705-2.12132034-.8786797-.56260914-.5626091-.87867966-1.3256708-.87867966-2.1213203zm34.754-6.338 3.246 6.203c-1.3361925.7063561-2.4286439 1.7988075-3.135 3.135l-6.2-3.248c1.3694734-2.5988292 3.4931708-4.7225266 6.092-6.092zm2.857 16.727c-1.5730402-1.5729696-2.0436421-3.938637-1.1923611-5.9938764.8512811-2.0552395 2.8567963-3.3952982 5.0813611-3.3952982s4.23008 1.3400587 5.0813611 3.3952982c.851281 2.0552394.3806791 4.4209068-1.1923611 5.9938764-2.1490048 2.1450103-5.6289952 2.1450103-7.778 0zm-23.111-5.389h10.573c-.044.5-.073 1-.073 1.5 0 .168.019.333.024.5h-12.024zm-7.5 6c-.26944224.0008733-.52720844-.1099083-.712-.306-.18659849-.1823963-.29062758-.4330776-.288-.694 0-.5522847.44771525-1 1-1h18.207c.0995246.6748497.241134 1.3428187.424 2.0000051zm24.247 5.753c-3.9778479-3.966202-5.2964744-9.878376-3.381-15.159l6.315 3.306c-.5552237 2.4951014.2031798 5.1009055 2.0106371 6.9083629 1.8074574 1.8074573 4.4132615 2.5658608 6.9083629 2.0106371l3.307 6.315c-5.280624 1.9154744-11.192798.5968479-15.159-3.381zm20.506 0c-1.032618 1.0328168-2.2148722 1.9042531-3.507 2.585l-3.246-6.203c1.3361925-.7063561 2.4286439-1.7988075 3.135-3.135l6.2 3.248c-.679999 1.2912228-1.5504087 2.4727819-2.582 3.505zm4.247-10.253c-.0029266 1.6730958-.2959331 3.333015-.866 4.906l-6.315-3.306c.5506613-2.4943441-.2092713-5.0972558-2.0155078-6.9034922-1.8062364-1.8062365-4.4091481-2.5661691-6.9034922-2.0155078l-3.307-6.315c4.4408278-1.6024877 9.3839257-.940872 13.2470159 1.7730648 3.8630902 2.7139367 6.1616761 7.1398214 6.1599841 11.8609352zm-6.042-27.627c.8567075 2.1593342 1.1599022 4.4986084.882 6.805-1.201458-3.3533174-3.7594966-6.0456648-7.047-7.417-3-1.3-9.384-2.392-12.1 2.809-.1889987.3652131-.2183217.792387-.081 1.18.1389514.3959411.4363932.7162073.821.884l1.892.823-9.985 3.931-3.931-9.982 1.928.839c.7417388.3221568 1.6050752-.0056981 1.946-.739 2.3906615-5.04093428 7.5461324-8.18126336 13.1220474-7.99297443 5.5759149.18828894 10.5077964 3.66925033 12.5529526 8.85997443zm-46.958-13.873h38c1.6568542 0 3 1.34314575 3 3v1.668c-.229-.112-.449-.236-.685-.338-7.7458934-3.41118971-16.8068575-.16609412-20.626 7.387l-2.589-1.126c-.5569277-.2457315-1.2071391-.1305144-1.6457212.2916208-.4385821.4221353-.5785548 1.0674705-.3542788 1.6333792l4.558 11.571c.1459104.3707244.4339395.6677544.8.825.3640467.1608237.7775678.1680342 1.147.02l11.571-4.557c.5643982-.2222903.9393574-.7626319.9500823-1.3691328.0107248-.6065009-.3448961-1.1597614-.9010823-1.4018672l-2.485-1.081c2.19-3.34 6.952-2.43 9.256-1.428.356.155.685.326 1 .5v9.61c-.8257097-.1305981-1.6600468-.1991234-2.496-.205-4.378455-.0121514-8.5797253 1.7282051-11.667 4.833-.6632909.6697903-1.2684679 1.3947314-1.809 2.167h-28.024v-29c0-1.65685425 1.34314575-3 3-3z"/><path id="Shape" d="m41.025 41.025c-.6564546.6563876-1.0252525 1.5466804-1.0252525 2.475s.3687979 1.8186124 1.0252525 2.475c1.3669048 1.3669047 3.5830952 1.3669046 4.9499999-.0000001s1.3669048-3.5830951.0000001-4.9499999c-1.3854403-1.3213986-3.5645597-1.3213986-4.95 0zm3.535 3.536c-.5933965.5658418-1.5266035.5658418-2.12 0-.4290909-.4289614-.5575076-1.0741736-.3253626-1.6347408.2321449-.5605672.779128-.9260795 1.3858626-.9260795s1.1537177.3655123 1.3858626.9260795c.232145.5605672.1037283 1.2057794-.3253626 1.6347408z"/></g></g></g></svg>