<svg id="Capa_1" enable-background="new 0 0 512 512" height="512" viewBox="0 0 512 512" width="512" xmlns="http://www.w3.org/2000/svg"><g><g><circle cx="399.102" cy="84.404" fill="#5bb59b" r="50.352"/><path d="m302.471 138.212h78.497v30h-78.497z" fill="#3b877b" transform="matrix(.641 -.768 .768 .641 5.197 317.525)"/><path d="m399.102 149.756c-36.035 0-65.352-29.316-65.352-65.352s29.316-65.352 65.352-65.352 65.352 29.316 65.352 65.352-29.317 65.352-65.352 65.352zm0-100.703c-19.493 0-35.352 15.859-35.352 35.352s15.859 35.352 35.352 35.352 35.352-15.859 35.352-35.352-15.86-35.352-35.352-35.352z" fill="#9edba7"/></g><g><path d="m102.448 303.981h74.923v30h-74.923z" fill="#8dcbff" transform="matrix(.879 -.477 .477 .879 -135.177 105.321)"/><circle cx="63.949" cy="360.191" fill="#7aabff" r="48.949"/><path d="m63.949 424.14c-35.261 0-63.949-28.688-63.949-63.949 0-35.262 28.688-63.949 63.949-63.949 35.262 0 63.949 28.688 63.949 63.949s-28.688 63.949-63.949 63.949zm0-97.898c-18.72 0-33.949 15.229-33.949 33.949 0 18.719 15.229 33.949 33.949 33.949s33.949-15.229 33.949-33.949-15.23-33.949-33.949-33.949z" fill="#b7defe"/></g><g><path d="m357.108 286.462h30v79.628h-30z" fill="#fdae02" transform="matrix(.518 -.856 .856 .518 -99.7 475.668)"/><circle cx="448.051" cy="372.242" fill="#fd9002" r="48.949"/><path d="m448.051 436.191c-35.262 0-63.949-28.688-63.949-63.949 0-35.262 28.688-63.949 63.949-63.949s63.949 28.687 63.949 63.949c0 35.261-28.688 63.949-63.949 63.949zm0-97.898c-18.72 0-33.949 15.229-33.949 33.949 0 18.719 15.229 33.949 33.949 33.949s33.949-15.23 33.949-33.949c0-18.72-15.229-33.949-33.949-33.949z" fill="#fdcb02"/></g><g><circle cx="119.823" cy="70.874" fill="#fd9002" r="55.874"/><path d="m160.592 108.445h30v76.488h-30z" fill="#fdae02" transform="matrix(.806 -.593 .593 .806 -52.774 132.572)"/><path d="m119.823 141.747c-39.08 0-70.874-31.794-70.874-70.874s31.794-70.873 70.874-70.873 70.874 31.794 70.874 70.874-31.795 70.873-70.874 70.873zm0-111.747c-22.538 0-40.874 18.336-40.874 40.874s18.336 40.874 40.874 40.874 40.874-18.336 40.874-40.874-18.337-40.874-40.874-40.874z" fill="#fdcb02"/></g><g><path d="m241 350.595h30v65.979h-30z" fill="#3b877b"/><g><path d="m256 416.574c-.04 0-.079.002-.119.003l-10.001 40.21 10.001 40.21c.04 0 .079.003.119.003 22.209 0 40.213-18.004 40.213-40.213s-18.004-40.213-40.213-40.213z" fill="#5ca196"/><path d="m215.787 456.787c0 22.169 17.94 40.146 40.094 40.21v-80.42c-22.155.064-40.094 18.041-40.094 40.21z" fill="#5bb59b"/></g><g><path d="m256 401.574c-.04 0-.079.003-.12.003l-10.001 14.546 10.001 15.454c.04 0 .079-.003.12-.003 13.902 0 25.213 11.311 25.213 25.213s-11.311 25.213-25.213 25.213c-.04 0-.079-.003-.12-.003l-10.001 15 10.001 15c.04 0 .079.003.12.003 30.444 0 55.213-24.769 55.213-55.213 0-30.445-24.769-55.213-55.213-55.213z" fill="#7bc5b0"/><path d="m230.787 456.787c0-13.862 11.246-25.145 25.094-25.21v-30c-30.39.065-55.094 24.806-55.094 55.21 0 30.405 24.704 55.145 55.094 55.21v-30c-13.848-.065-25.094-11.348-25.094-25.21z" fill="#9edba7"/></g></g><g><g><path d="m256 161.405-10.001 94.595 10.001 94.595c52.243 0 94.594-42.352 94.594-94.595s-42.351-94.595-94.594-94.595z" fill="#3d3d3d"/><path d="m256 161.405c-52.243 0-94.595 42.352-94.595 94.595s42.351 94.595 94.595 94.595z" fill="#535353"/></g><path d="m256 206c-.04 0-.079.003-.12.003l-10.001 49.997 10.001 49.997c.04 0 .079.003.12.003 27.57 0 50-22.43 50-50s-22.43-50-50-50z" fill="#535353"/><path d="m206 256c0 27.53 22.365 49.932 49.88 49.997v-99.994c-27.515.065-49.88 22.467-49.88 49.997z" fill="#6e6e6e"/><g><path d="m256 146.405c-.04 0-.08.001-.12.001l-10.001 14.999 10.001 15.003c.04 0 .079-.003.12-.003 43.888 0 79.594 35.706 79.594 79.595s-35.706 79.595-79.594 79.595c-.04 0-.079-.003-.12-.003l-10.001 15.003 10.001 14.999c.04 0 .08.001.12.001 60.431 0 109.594-49.164 109.594-109.595s-49.163-109.595-109.594-109.595z" fill="#dcd2cd"/><path d="m176.405 256c0-43.849 35.642-79.526 79.475-79.592v-30.001c-60.375.065-109.475 49.202-109.475 109.593s49.099 109.528 109.475 109.593v-30.001c-43.833-.066-79.475-35.743-79.475-79.592z" fill="#ebe1dc"/></g></g></g></svg>