<svg id="Capa_1" enable-background="new 0 0 512 512" height="512" viewBox="0 0 512 512" width="512" xmlns="http://www.w3.org/2000/svg"><g><g fill="#95d6a4"><path d="m335.018 58.773 2.308.624c8.139 2.201 16.592-2.275 19.345-10.244l8.469-24.512c3.033-8.78-2.004-18.293-10.971-20.718l-5.734-1.551c-8.967-2.425-18.113 3.251-19.919 12.363l-5.042 25.439c-1.639 8.271 3.405 16.398 11.544 18.599z"/><path d="m404.041 98.126 1.686 1.694c5.948 5.976 15.507 6.326 21.876.801l19.59-16.994c7.017-6.087 7.411-16.844.858-23.428l-4.19-4.21c-6.553-6.584-17.311-6.241-23.431.747l-17.086 19.51c-5.556 6.343-5.251 15.904.697 21.88z"/><path d="m444.14 166.718.613 2.311c2.163 8.149 10.266 13.232 18.544 11.632l25.463-4.922c9.12-1.763 14.84-10.882 12.457-19.86l-1.524-5.741c-2.383-8.978-11.872-14.06-20.666-11.069l-24.552 8.353c-7.981 2.714-12.498 11.147-10.335 19.296z"/></g><g><path d="m406.187 511.999h-153.878c-40.85 0-66.531-44.035-46.415-79.588l70.581-124.756v-86.369h105.547v86.369l70.581 124.756c20.115 35.554-5.566 79.588-46.416 79.588z" fill="#b1e4fa"/><path d="m276.474 221.287h105.547v50.393h-105.547z" fill="#9dc6fb"/><path d="m282.336 432.412c-7.647 35.543 2.112 79.588 17.653 79.588h-47.683c-40.85 0-66.531-44.045-46.415-79.588l70.581-124.766v-86.358h32.699v86.358z" fill="#9dc6fb"/><path d="m393.538 245.966h-128.58c-11.81 0-21.384-9.574-21.384-21.384v-17.547c0-11.81 9.574-21.384 21.384-21.384h128.58c11.81 0 21.384 9.574 21.384 21.384v17.547c-.001 11.81-9.575 21.384-21.384 21.384z" fill="#b1e4fa"/><path d="m317.288 245.958h-52.33c-11.81 0-21.383-9.574-21.383-21.383v-17.54c0-11.81 9.574-21.383 21.383-21.383h52.33c-11.81 0-21.383 9.574-21.383 21.383v17.54c0 11.81 9.573 21.383 21.383 21.383z" fill="#9dc6fb"/><path d="m425.551 469.964c-1.948 3.339-7.739 11.119-19.364 11.119h-153.878c-11.624 0-17.416-7.78-19.364-11.119-1.948-3.349-5.864-12.212-.144-22.332l55.154-97.488h82.587l55.154 97.488c5.719 10.12 1.803 18.983-.145 22.332z" fill="#ecbe6b"/><path d="m282.338 432.411c-3.463 16.107-3.36 33.966-.752 48.672h-29.277c-11.624 0-17.416-7.78-19.364-11.119-1.948-3.349-5.864-12.212-.144-22.332l55.154-97.488h12.078z" fill="#eab14d"/></g><g><path d="m28.509 278.259c-24.357-24.357-24.357-63.848 0-88.205l160.51-160.51 88.205 88.205-160.51 160.51c-24.358 24.357-63.848 24.357-88.205 0z" fill="#b1e4fa"/><path d="m47.691 209.236c-21.057 21.067-23.911 53.436-8.551 77.562-3.77-2.4-7.335-5.244-10.631-8.54-24.353-24.353-24.353-63.84 0-88.204l160.512-160.502 19.182 19.182z" fill="#9dc6fb"/><path d="m148.849 77.729h124.74v35.64h-124.74z" fill="#9dc6fb" transform="matrix(.707 .707 -.707 .707 129.428 -121.369)"/><path d="m261.137 136.744-91.113-91.113c-10.439-10.439-10.439-27.363 0-37.802 10.439-10.439 27.363-10.439 37.802 0l91.113 91.113c10.439 10.439 10.439 27.363 0 37.802-10.439 10.439-27.363 10.439-37.802 0z" fill="#b1e4fa"/><path d="m211.706 87.3-41.674-41.674c-10.442-10.442-10.442-27.362-.007-37.797 5.225-5.225 12.06-7.834 18.902-7.826 6.842-.007 13.677 2.602 18.902 7.826l41.674 41.674c-5.217-5.217-12.053-7.826-18.902-7.826-6.835 0-13.67 2.609-18.895 7.834-10.435 10.434-10.435 27.355 0 37.789z" fill="#9dc6fb"/><path d="m232.862 118.378-12.002 12.012-126.011 126.012c-12.259 12.259-32.214 12.259-44.483 0-12.259-12.27-12.259-32.224 0-44.483l93.54-93.54h88.956z" fill="#e28086"/><path d="m232.862 118.378-12.002 12.012-12.011-12.012z" fill="#dd636e"/></g></g></svg>