<svg id="Layer_1" enable-background="new 0 0 24 24" viewBox="0 0 24 24" xmlns="http://www.w3.org/2000/svg" xmlns:xlink="http://www.w3.org/1999/xlink"><linearGradient id="SVGID_1_" gradientUnits="userSpaceOnUse" x1="9.669" x2="18.307" y1="9.676" y2="18.313"><stop offset="0" stop-color="#010101" stop-opacity=".1"/><stop offset="1" stop-color="#010101" stop-opacity="0"/></linearGradient><linearGradient id="SVGID_2_" gradientUnits="userSpaceOnUse" x1="2.014" x2="21.983" y1="7.34" y2="16.652"><stop offset="0" stop-color="#fff" stop-opacity=".2"/><stop offset="1" stop-color="#fff" stop-opacity="0"/></linearGradient><g><path d="m23.5615234 10.9320221c-.0009766 0-.0009766-.0004883-.0009766-.0004883l-10.4990234-10.5058594c-.5664063-.567749-1.5576172-.5672607-2.1220703-.0004883l-10.5009765 10.506836c-.2822266.2838745-.4384766.6605835-.4384766 1.06073 0 .4006348.15625.777771.4394531 1.0611572l10.4990234 10.5058594c.2832032.2838745.6601563.4402466 1.0615235.4402466s.7783203-.1563721 1.0605469-.4397583l10.5-10.5063477c.2832031-.2833862.4394531-.6605225.4394531-1.0611572 0-.4001465-.15625-.7768555-.4384766-1.06073z" fill="#ef473b"/><path d="m23.6809692 12.6898956-10.609375 10.6157837c-.2851562.2863159-.6660766.444336-1.0715942.444336s-.786438-.15802-1.0725708-.4448242l-10.6083984-10.6152955c-.1239624-.1240845-.218689-.2683716-.2921143-.4222412.0545654.2959595.1953125.5689087.4125366.7862549l10.4990234 10.5058594c.2832032.2838745.6601563.4402466 1.0615235.4402466s.7783203-.1563721 1.0605469-.4397583l10.5-10.5063477c.2172241-.2173462.3580322-.4902954.4125977-.7862549-.0734254.1538696-.168213.2981568-.2921754.4222412z" fill="#010101" opacity=".1"/><path d="m17 10.0000153c-.3748779 0-.7219849.1100464-1.0222168.2902832l-2.2680664-2.2680664c.1801758-.3001709.2902832-.6472779.2902832-1.0222168 0-1.1030273-.8974609-2-2-2-.369873 0-.7122803.1077881-1.0098267.2835693l-2.4537353-2.4540405-.7068482.7072143 2.4536743 2.4539795c-.175537.2973633-.2832641.6395874-.2832641 1.0092774 0 .9293213.6400146 1.7053833 1.5 1.9289551v6.1420898c-.8599854.2235718-1.5.9996338-1.5 1.9289551 0 1.1030273.8974609 2 2 2s2-.8969727 2-2c0-.9293213-.6400146-1.7053833-1.5-1.9289551v-6.1420899c.1767578-.0459595.3425293-.1158447.4968872-.2055054l2.2796631 2.2796631c-.1712036.2946778-.2765503.6322022-.2765503.9968873 0 1.1030273.8974609 2 2 2s2-.8969727 2-2-.8974609-2-2-2z" fill="#fff"/><path d="m.4384766 11.1820221 10.5009765-10.5068359c.5644531-.5667725 1.5556641-.5672607 2.1220703.0004883l10.4990234 10.5058594s0 .0004883.0009766.0004883c.2523193.2537842.3969727.583252.4262695.935791.0034791-.0418702.0122071-.0825807.0122071-.1250611 0-.4001465-.15625-.7768555-.4384766-1.06073-.0009766 0-.0009766-.0004883-.0009766-.0004883l-10.4990234-10.5058594c-.5664063-.567749-1.5576172-.5672607-2.1220703-.0004883l-10.5009765 10.506836c-.2822266.2838745-.4384766.6605835-.4384766 1.06073 0 .0424194.008728.0831299.012207.124939.0293579-.3525391.1740113-.6819459.4262696-.935669z" fill="#fff" opacity=".2"/><path d="m18.5488281 10.7503815c.27771.3434448.4511719.7744751.4511719 1.2496338 0 1.1030273-.8974609 2-2 2s-2-.8969727-2-2c0-.3646851.1053467-.7022095.2765503-.9968872l-2.2796631-2.2796631c-.1543579.0896606-.3201294.1595459-.4968872.2055053v6.1420898c.8599854.2235718 1.5.9996338 1.5 1.9289551 0 1.1030273-.8974609 2-2 2-.5114746 0-.9738159-.1986694-1.3278809-.5157471l3.7318115 3.7318115 7.8029175-7.8076782zm-4.8391113-2.7281494 2.2680664 2.2680664c.3002319-.1802369.6473389-.2902832 1.0222168-.2902832.4750977 0 .90625.1735229 1.2498169.451355l-4.6776733-4.6777344-.0024415.0020141c.2654419.3394165.4302979.7609864.4302979 1.2243653 0 .3749389-.1101074.7220459-.2902832 1.0222168z" fill="url(#SVGID_1_)"/><path d="m23.5615234 10.9320221c-.0009766 0-.0009766-.0004883-.0009766-.0004883l-10.4990234-10.5058594c-.5664063-.567749-1.5576172-.5672607-2.1220703-.0004883l-10.5009765 10.506836c-.2822266.2838745-.4384766.6605835-.4384766 1.06073 0 .4006348.15625.777771.4394531 1.0611572l10.4990234 10.5058594c.2832032.2838745.6601563.4402466 1.0615235.4402466s.7783203-.1563721 1.0605469-.4397583l10.5-10.5063477c.2832031-.2833862.4394531-.6605225.4394531-1.0611572 0-.4001465-.15625-.7768555-.4384766-1.06073z" fill="url(#SVGID_2_)"/></g><g/><g/><g/><g/><g/><g/><g/><g/><g/><g/><g/><g/><g/><g/><g/></svg>