<?xml version="1.0" encoding="iso-8859-1"?>
<!-- Generator: Adobe Illustrator 19.0.0, SVG Export Plug-In . SVG Version: 6.00 Build 0)  -->
<svg version="1.1" id="Capa_1" xmlns="http://www.w3.org/2000/svg" xmlns:xlink="http://www.w3.org/1999/xlink" x="0px" y="0px"
	 viewBox="0 0 512 512" style="enable-background:new 0 0 512 512;" xml:space="preserve">
<path style="fill:#C8C6CD;" d="M194.99,0.013c-90.896,0-164.992,74.095-164.992,164.992V257c0,8.401,6.599,14.999,14.999,14.999
	h59.997c8.401,0,14.999-6.599,14.999-14.999v-91.995c0-41.398,33.598-74.996,74.996-74.996s74.996,33.598,74.996,74.996v29.998
	c0,8.401,6.599,14.999,14.999,14.999h59.997c8.401,0,14.999-6.599,14.999-14.999v-29.998C359.982,74.108,285.886,0.013,194.99,0.013
	z"/>
<path style="fill:#FEA832;" d="M344.982,242.001H44.998C20.098,242.001,0,262.1,0,286.999v179.991
	c0,24.9,20.098,44.998,44.998,44.998h299.985c24.9,0,44.998-20.098,44.998-44.998V286.999
	C389.98,262.1,369.882,242.001,344.982,242.001z"/>
<path style="fill:#AEADB3;" d="M359.982,165.005v29.998c0,8.401-6.599,14.999-14.999,14.999h-59.997
	c-8.401,0-14.999-6.599-14.999-14.999v-29.998c0-41.398-33.598-74.996-74.996-74.996V0.013
	C285.886,0.013,359.982,74.108,359.982,165.005z"/>
<g>
	<path style="fill:#159CE4;" d="M430.269,153.587l59.997-29.998c17.799-8.865,31.057,18.014,13.417,26.835l-59.997,29.998
		C425.869,189.271,412.621,162.412,430.269,153.587z"/>
	<path style="fill:#159CE4;" d="M490.266,330.414l-59.997-29.999c-17.654-8.827-4.403-35.692,13.417-26.835l59.997,29.998
		C521.208,312.342,508.267,339.354,490.266,330.414z"/>
	<path style="fill:#159CE4;" d="M496.975,242.001h-59.997c-19.772,0-19.853-29.998,0-29.998h59.997
		C516.747,212.002,516.828,242.001,496.975,242.001z"/>
</g>
<path style="fill:#FE8821;" d="M389.98,286.999v179.991c0,24.9-20.098,44.998-44.998,44.998H194.99V242.001h149.992
	C369.882,242.001,389.98,262.1,389.98,286.999z"/>
<path style="fill:#787780;" d="M239.988,346.996c0,19.5-12.598,35.998-29.998,42.297v47.699c0,9.901-7.5,14.999-14.999,14.999
	s-14.999-5.099-14.999-14.999v-47.699c-17.4-6.299-29.998-22.797-29.998-42.297c0-24.9,20.098-44.998,44.998-44.998
	S239.988,322.097,239.988,346.996z"/>
<path style="fill:#57555C;" d="M239.988,346.996c0,19.5-12.598,35.998-29.998,42.297v47.699c0,9.901-7.5,14.999-14.999,14.999
	V301.998C219.89,301.998,239.988,322.097,239.988,346.996z"/>
<g>
</g>
<g>
</g>
<g>
</g>
<g>
</g>
<g>
</g>
<g>
</g>
<g>
</g>
<g>
</g>
<g>
</g>
<g>
</g>
<g>
</g>
<g>
</g>
<g>
</g>
<g>
</g>
<g>
</g>
</svg>
