<svg id="Capa_1" enable-background="new 0 0 512 512" height="512" viewBox="0 0 512 512" width="512" xmlns="http://www.w3.org/2000/svg"><g><g><path d="m450.439 283.628-54.648 26.86v-108.976l54.648 26.86c11.174 5.493 24.685.886 30.178-10.288 3.446-7.012 2.916-14.942-.717-21.235-2.157-3.736-5.409-6.896-9.571-8.942l-27.708-13.619 20.335-11.741c10.783-6.226 14.477-20.014 8.252-30.797-6.226-10.783-20.013-14.478-30.797-8.252l-20.335 11.741 2.06-30.805c.309-4.629-.801-9.023-2.958-12.76-3.633-6.293-10.237-10.718-18.032-11.239-12.424-.831-23.168 8.568-23.999 20.99l-4.063 60.757-94.376-54.488 50.586-33.897c10.343-6.931 13.11-20.935 6.178-31.278-6.933-10.344-20.935-13.11-31.279-6.179l-25.648 17.186v-23.481c0-12.451-10.094-22.545-22.545-22.545s-22.545 10.094-22.545 22.545v23.481l-25.648-17.186c-10.343-6.931-24.347-4.165-31.278 6.179s-4.165 24.348 6.179 31.278l50.586 33.897-94.377 54.489-4.063-60.757c-.831-12.423-11.575-21.821-23.999-20.99-12.425.832-21.821 11.575-20.99 23.999l2.06 30.805-20.335-11.74c-10.783-6.225-24.571-2.531-30.797 8.252s-2.531 24.571 8.252 30.797l20.335 11.74-27.708 13.619c-11.174 5.492-15.78 19.003-10.288 30.177s19.003 15.781 30.177 10.288l54.648-26.86v108.977l-54.649-26.86c-11.174-5.492-24.685-.886-30.177 10.289-5.492 11.176-.886 24.685 10.288 30.178l27.708 13.618-20.335 11.74c-10.783 6.226-14.478 20.013-8.252 30.797 6.225 10.783 20.014 14.477 30.797 8.252l20.335-11.74-2.06 30.805c-.831 12.423 8.567 23.168 20.99 23.999 12.424.831 23.168-8.567 23.999-20.99l4.063-60.757 94.377 54.489-50.585 33.897c-10.344 6.931-13.11 20.935-6.179 31.279 4.349 6.49 11.482 9.996 18.749 9.996 4.314 0 8.676-1.236 12.529-3.818l25.648-17.186v23.481c0 12.451 10.094 22.545 22.545 22.545s22.545-10.093 22.545-22.545v-23.481l25.648 17.186c3.854 2.582 8.215 3.818 12.53 3.818 7.266 0 14.401-3.507 18.749-9.996 6.932-10.344 4.165-24.348-6.178-31.279l-50.586-33.897 94.376-54.488 4.063 60.757c.83 12.423 11.575 21.821 23.999 20.99 7.795-.521 14.398-4.945 18.032-11.239 2.157-3.736 3.268-8.132 2.958-12.76l-2.06-30.805 20.335 11.741c10.783 6.226 24.571 2.531 30.797-8.252s2.531-24.571-8.252-30.797l-20.335-11.74 27.708-13.618c4.163-2.047 7.414-5.205 9.571-8.942 3.633-6.293 4.163-14.225.717-21.235-5.493-11.18-19.004-15.786-30.178-10.294z" fill="#7cdaf7"/><g fill="#2fc7f3"><path d="m386.504 427.393c4.083 2.931 9.165 4.519 14.568 4.175-4.912-1.255-9.767-2.654-14.568-4.175z"/><path d="m329.293 438.203-50.586-33.896 29.328-16.933c-66.611-49.149-109.827-128.179-109.827-217.312 0-15.058 1.253-29.82 3.624-44.206l-62.917 36.325-4.063-60.757c-.831-12.422-11.575-21.821-23.999-20.99-12.425.832-21.821 11.576-20.99 23.999l2.06 30.805-20.335-11.74c-10.783-6.226-24.571-2.531-30.797 8.252s-2.531 24.571 8.252 30.797l20.335 11.74-27.708 13.619c-11.174 5.492-15.78 19.003-10.288 30.177s19.003 15.781 30.177 10.288l54.648-26.86v108.977l-54.649-26.86c-11.174-5.492-24.685-.886-30.177 10.289-5.492 11.176-.886 24.686 10.288 30.178l27.708 13.618-20.335 11.74c-10.783 6.226-14.478 20.014-8.252 30.797 6.225 10.783 20.014 14.478 30.797 8.252l20.335-11.74-2.06 30.805c-.831 12.422 8.567 23.167 20.99 23.999 12.424.831 23.168-8.567 23.999-20.99l4.063-60.757 94.377 54.488-50.585 33.896c-10.344 6.931-13.11 20.935-6.179 31.279 4.349 6.49 11.482 9.996 18.749 9.996 4.314 0 8.676-1.236 12.529-3.818l25.648-17.187v23.481c0 12.452 10.094 22.545 22.545 22.545 12.452 0 22.545-10.093 22.545-22.545v-23.481l25.648 17.187c3.854 2.582 8.214 3.818 12.53 3.818 7.266 0 14.401-3.507 18.749-9.996 6.933-10.344 4.166-24.348-6.177-31.279z"/></g><path d="m339.138 188.771-66.486-38.386c-10.305-5.949-23-5.949-33.305 0l-66.486 38.386c-10.305 5.949-16.652 16.944-16.652 28.843v76.772c0 11.899 6.348 22.893 16.652 28.843l66.486 38.386c10.305 5.949 23 5.949 33.305 0l66.486-38.386c10.305-5.949 16.652-16.944 16.652-28.843v-76.772c.001-11.899-6.347-22.894-16.652-28.843z" fill="#e6e5f7"/><path d="m198.26 174.107-25.399 14.664c-10.304 5.949-16.652 16.944-16.652 28.843v76.772c0 11.898 6.348 22.894 16.652 28.843l66.486 38.386c10.305 5.949 23 5.949 33.305 0l3.386-1.955c-47.236-47.85-76.714-113.257-77.778-185.553z" fill="#cbcbf7"/></g><g><path d="m64.863 235.103 43.84-21.548v84.891l-43.84-21.548c-14.869-7.308-32.909-1.156-40.217 13.712-7.306 14.869-1.155 32.91 13.712 40.216l15.095 7.419-8.164 4.713c-14.381 8.303-19.301 26.659-10.998 41.042 8.301 14.38 26.659 19.302 41.042 10.998l8.164-4.713-1.123 16.783c-1.105 16.529 11.443 30.876 27.973 31.982 16.565 1.107 30.875-11.399 31.982-27.973l3.259-48.74 73.518 42.445-40.581 27.192c-13.795 9.242-17.479 27.887-8.234 41.685 9.274 13.838 27.95 17.437 41.684 8.233l13.973-9.363v9.428c0 16.566 13.478 30.044 30.045 30.044s30.045-13.478 30.045-30.044v-9.427l13.974 9.363c13.759 9.217 32.426 5.58 41.683-8.234 9.243-13.793 5.563-32.44-8.234-41.685l-40.581-27.193 22.418-12.943c3.587-2.071 4.816-6.658 2.745-10.245s-6.658-4.816-10.245-2.745l-32.848 18.965c-4.79 2.765-5.048 9.627-.425 12.726l50.585 33.897c6.906 4.628 8.752 13.964 4.123 20.874-4.607 6.875-13.94 8.766-20.873 4.123l-25.647-17.187c-4.972-3.332-11.675.237-11.675 6.23v23.481c0 8.295-6.749 15.044-15.045 15.044s-15.045-6.749-15.045-15.044v-23.481c0-5.985-6.698-9.568-11.675-6.23l-25.648 17.187c-6.915 4.634-16.255 2.768-20.873-4.123-4.628-6.908-2.785-16.245 4.123-20.874l50.585-33.896c4.595-3.079 4.395-9.943-.425-12.726l-94.377-54.489c-4.816-2.78-10.864.473-11.233 5.995l-4.063 60.757c-.554 8.296-7.719 14.562-16.015 14.007s-14.563-7.718-14.007-16.015l2.06-30.805c.399-5.972-6.042-9.992-11.233-6.996l-20.335 11.74c-7.201 4.157-16.393 1.695-20.551-5.507-4.157-7.201-1.696-16.393 5.507-20.551l20.334-11.74c5.184-2.993 4.937-10.582-.441-13.226l-27.708-13.619c-7.444-3.659-10.524-12.693-6.866-20.139 3.659-7.445 12.692-10.525 20.138-6.866l54.648 26.86c4.965 2.441 10.808-1.17 10.808-6.731v-108.978c0-5.53-5.813-9.186-10.808-6.731l-54.649 26.86c-7.445 3.66-16.479.579-20.138-6.866s-.579-16.479 6.865-20.138l27.708-13.619c5.372-2.641 5.633-10.23.442-13.226l-20.334-11.74c-7.184-4.148-9.655-13.367-5.507-20.552s13.368-9.654 20.551-5.507l20.335 11.74c5.184 2.993 11.633-1.016 11.233-6.996l-2.06-30.804c-.554-8.277 5.73-15.461 14.007-16.015 8.275-.555 15.461 5.729 16.015 14.007l4.063 60.757c.37 5.527 6.424 8.773 11.233 5.995l33.423-19.296c3.587-2.071 4.816-6.658 2.745-10.245s-6.658-4.816-10.245-2.745l-22.993 13.275-3.259-48.741c-1.106-16.53-15.449-29.078-31.983-27.973-16.53 1.106-29.078 15.454-27.973 31.983l1.123 16.782-8.164-4.713c-14.348-8.283-32.759-3.35-41.042 10.997-8.284 14.347-3.35 32.759 10.997 41.042l8.164 4.713-15.095 7.419c-14.868 7.307-21.018 25.348-13.711 40.216 7.312 14.872 25.353 21.02 40.219 13.713z"/><path d="m178.527 80.027 40.581 27.192-24.896 14.374c-3.587 2.071-4.816 6.658-2.745 10.245 2.071 3.588 6.66 4.816 10.245 2.745l35.325-20.396c4.79-2.765 5.048-9.628.425-12.726l-50.585-33.896c-6.907-4.628-8.752-13.964-4.123-20.873 4.629-6.907 13.965-8.753 20.873-4.123l25.648 17.186c4.972 3.332 11.675-.237 11.675-6.23v-23.48c0-8.296 6.749-15.045 15.045-15.045s15.045 6.749 15.045 15.045v23.48c0 5.985 6.696 9.567 11.675 6.23l25.648-17.186c6.891-4.618 16.254-2.768 20.873 4.124 4.628 6.905 2.786 16.243-4.123 20.873l-50.586 33.897c-4.595 3.079-4.395 9.943.425 12.726l94.376 54.488c4.816 2.78 10.864-.473 11.233-5.995l4.063-60.757c.555-8.296 7.718-14.563 16.016-14.007 8.273.553 14.562 7.706 14.007 16.015l-2.06 30.805c-.399 5.972 6.041 9.992 11.233 6.996l20.335-11.741c7.184-4.147 16.404-1.678 20.552 5.507 4.157 7.201 1.695 16.394-5.507 20.552l-20.335 11.741c-5.183 2.993-4.937 10.582.442 13.226l27.708 13.619c7.456 3.663 10.531 12.679 6.865 20.137-3.667 7.461-12.673 10.535-20.139 6.866l-54.648-26.86c-4.963-2.44-10.808 1.165-10.808 6.731v108.977c0 5.531 5.813 9.186 10.808 6.731l54.649-26.86c7.46-3.668 16.47-.597 20.138 6.866 3.657 7.441.609 16.464-6.866 20.139l-27.708 13.618c-5.372 2.641-5.631 10.23-.442 13.226l20.335 11.741c7.184 4.148 9.654 13.367 5.507 20.551-4.157 7.201-13.349 9.665-20.552 5.507l-20.335-11.74c-5.182-2.993-11.633 1.015-11.233 6.996l2.06 30.806c.555 8.286-5.714 15.459-14.007 16.014-8.296.555-15.46-5.71-16.015-14.007l-4.063-60.757c-.37-5.526-6.422-8.772-11.233-5.995l-36.186 20.892c-3.587 2.071-4.816 6.658-2.745 10.245s6.658 4.816 10.245 2.745l25.756-14.87 3.259 48.74c1.103 16.497 15.333 29.078 31.982 27.974 16.621-1.111 29.078-15.488 27.973-31.982l-1.123-16.783 8.165 4.713c14.379 8.304 32.738 3.385 41.042-10.997 4.013-6.95 5.079-15.047 3.001-22.798-2.077-7.752-7.048-14.23-13.999-18.243l-8.165-4.714 15.096-7.419c14.862-7.306 21.046-25.293 13.711-40.216-7.324-14.901-25.312-21.038-40.216-13.711l-43.84 21.547v-84.89l43.839 21.547c14.903 7.325 32.892 1.193 40.217-13.711 7.347-14.948 1.126-32.926-13.711-40.216l-15.095-7.419 8.165-4.714c14.381-8.306 19.301-26.663 10.998-41.045-8.283-14.347-26.696-19.28-41.042-10.997l-8.164 4.713 1.123-16.783c1.103-16.522-11.381-30.872-27.973-31.982-16.568-1.108-30.874 11.404-31.983 27.973l-3.259 48.74-73.517-42.445 40.581-27.193c13.794-9.243 17.479-27.888 8.234-41.684-9.224-13.763-27.924-17.456-41.684-8.234l-13.973 9.363v-9.427c-.001-16.566-13.479-30.044-30.046-30.044s-30.045 13.478-30.045 30.045v9.427l-13.973-9.363c-13.793-9.244-32.44-5.562-41.684 8.234-9.243 13.795-5.562 32.44 8.235 41.684z"/><path d="m363.285 294.386v-76.772c0-14.531-7.818-28.072-20.402-35.338l-66.486-38.386c-12.584-7.266-28.22-7.266-40.805 0l-66.486 38.386c-12.585 7.266-20.403 20.807-20.403 35.338v76.772c0 14.532 7.818 28.072 20.403 35.338l66.486 38.386c12.584 7.265 28.22 7.267 40.805 0l66.486-38.386c12.584-7.266 20.402-20.807 20.402-35.338zm-27.902 22.347-66.486 38.386c-7.958 4.595-17.845 4.595-25.805 0l-66.486-38.386c-7.959-4.595-12.903-13.158-12.903-22.348v-76.772c0-9.189 4.944-17.752 12.903-22.348l66.486-38.386c7.958-4.593 17.845-4.595 25.805 0l66.486 38.386c7.958 4.595 12.902 13.158 12.902 22.348v76.772c0 9.191-4.944 17.754-12.902 22.348z"/><path d="m193.545 234.953c-4.142 0-7.5 3.358-7.5 7.5v12c0 4.142 3.358 7.5 7.5 7.5s7.5-3.358 7.5-7.5v-12c0-4.142-3.358-7.5-7.5-7.5z"/><path d="m318.443 234.953c-4.142 0-7.5 3.358-7.5 7.5v12c0 4.142 3.358 7.5 7.5 7.5s7.5-3.358 7.5-7.5v-12c0-4.142-3.358-7.5-7.5-7.5z"/><path d="m277.386 248.442c-3.123-2.721-7.86-2.396-10.582.727-2.729 3.132-6.669 4.928-10.81 4.928s-8.081-1.796-10.81-4.928c-2.721-3.123-7.459-3.448-10.582-.727s-3.448 7.458-.727 10.582c5.579 6.401 13.64 10.073 22.118 10.073s16.54-3.671 22.119-10.073c2.722-3.123 2.397-7.86-.726-10.582z"/></g></g></svg>